<svg xmlns="http://www.w3.org/2000/svg" viewBox="0 0 610.76 128.38"><g id="Capa_2" data-name="Capa 2"><g id="Capa_1-2" data-name="Capa 1"><g id="isotipo"><path d="M161.2,48.2a22.22,22.22,0,0,0,4-5.56,26.31,26.31,0,0,0,2.73-12.13,28.85,28.85,0,0,0-4.29-15.67A30.65,30.65,0,0,0,152,4.06a37.26,37.26,0,0,0-33.4,0A30.32,30.32,0,0,0,106.88,14.8a28.92,28.92,0,0,0-4.29,15.58,26.28,26.28,0,0,0,2.85,12.24,23.29,23.29,0,0,0,4,5.57l.13.13h-5.69v32.9a50.71,50.71,0,0,0,3.38,18.55,45,45,0,0,0,9.61,15.09,44.42,44.42,0,0,0,14.55,9.93,46.48,46.48,0,0,0,18.26,3.58,45.67,45.67,0,0,0,18.08-3.57,43.61,43.61,0,0,0,14.49-10,45.3,45.3,0,0,0,9.54-15.07A50.72,50.72,0,0,0,195.2,81V48.22ZM120.47,25.11a14.51,14.51,0,0,1,6-5.57,18.78,18.78,0,0,1,8.89-2,18.27,18.27,0,0,1,8.7,2,15,15,0,0,1,8.13,13.82A15.7,15.7,0,0,1,150,41.6a15.41,15.41,0,0,1-8.23,6.6,19.68,19.68,0,0,1-6.45,1,20.4,20.4,0,0,1-6.57-1,15.38,15.38,0,0,1-8.29-6.54,16,16,0,0,1-2.15-8.37,15.81,15.81,0,0,1,2.15-8.19Zm59,55.6A30.9,30.9,0,0,1,175.78,96a26.88,26.88,0,0,1-10.39,10.39,31.53,31.53,0,0,1-15.66,3.71,32.76,32.76,0,0,1-16-3.71A26.2,26.2,0,0,1,123.3,96.11a31.42,31.42,0,0,1-3.71-15.46V65.87h59.9Z" fill="#005730"/><path d="M85.73,48.2a23.24,23.24,0,0,0,4-5.56,26.16,26.16,0,0,0,2.85-12.21,28.86,28.86,0,0,0-4.3-15.63A30.22,30.22,0,0,0,76.64,4a37.26,37.26,0,0,0-33.4,0A30.5,30.5,0,0,0,31.55,14.69a28.85,28.85,0,0,0-4.3,15.66A26.63,26.63,0,0,0,30,42.49a22,22,0,0,0,4,5.56H0V81A50.77,50.77,0,0,0,3.38,99.73,45.25,45.25,0,0,0,13,114.79a43.78,43.78,0,0,0,14.5,10,45.76,45.76,0,0,0,18.11,3.58,46.47,46.47,0,0,0,18.25-3.58,44.16,44.16,0,0,0,14.55-9.93,45,45,0,0,0,9.54-15,50.93,50.93,0,0,0,3.38-18.56V48.2ZM45.21,25a15.28,15.28,0,0,1,6-5.56,18.27,18.27,0,0,1,8.7-2,18.66,18.66,0,0,1,8.89,2,14.42,14.42,0,0,1,6,5.56,15.83,15.83,0,0,1,2.15,8.19,15.82,15.82,0,0,1-2.15,8.36,15.52,15.52,0,0,1-8.29,6.56,20.71,20.71,0,0,1-13,.12A15,15,0,0,1,43,33.36,15.48,15.48,0,0,1,45.21,25ZM75.6,80.71a31.42,31.42,0,0,1-3.71,15.46,26.32,26.32,0,0,1-10.42,10.32,32.8,32.8,0,0,1-16,3.71,31.49,31.49,0,0,1-15.7-3.71A26.87,26.87,0,0,1,19.41,96.11,30.89,30.89,0,0,1,15.7,80.79V65.92H75.6Z" fill="#005730"/></g><path d="M281.86,52a30.46,30.46,0,0,0-6.92-10,31.51,31.51,0,0,0-10.41-6.6,35.57,35.57,0,0,0-13-2.33H226.94V96.22h24.79a35.19,35.19,0,0,0,12.91-2.36A30.85,30.85,0,0,0,275,87.25a30.29,30.29,0,0,0,6.87-10,31.93,31.93,0,0,0,2.47-12.61A31.56,31.56,0,0,0,281.86,52ZM269.2,75.54a18,18,0,0,1-7.14,7.22,21.5,21.5,0,0,1-10.68,2.56H239.16V43.92h12.21A21.35,21.35,0,0,1,262,46.48a18.41,18.41,0,0,1,7.19,7.19,21.72,21.72,0,0,1,2.6,10.82A22.7,22.7,0,0,1,269.2,75.54Z" fill="#057130"/><path d="M323.48,52.81V57a15.33,15.33,0,0,0-4.22-3.14,18,18,0,0,0-8.35-1.88,19.81,19.81,0,0,0-10.68,3A20.67,20.67,0,0,0,292.77,63a26.05,26.05,0,0,0,0,23.07,20.74,20.74,0,0,0,7.46,8.09,19.81,19.81,0,0,0,10.68,3,17.67,17.67,0,0,0,8.35-1.93A15.8,15.8,0,0,0,323.48,92v4.22h11.68V52.87ZM321.06,83a10.45,10.45,0,0,1-8,3.28,11,11,0,0,1-5.7-1.48,10.39,10.39,0,0,1-3.86-4.14,14.1,14.1,0,0,1,0-12.21,10.3,10.3,0,0,1,3.86-4.13,11.89,11.89,0,0,1,11.49,0,10.33,10.33,0,0,1,3.87,4.13,12.87,12.87,0,0,1,1.39,6.06,11.92,11.92,0,0,1-3.05,8.46Z" fill="#057130"/><path d="M387.91,63a21,21,0,0,0-7.49-8.08,20.1,20.1,0,0,0-10.78-3,18.4,18.4,0,0,0-8.35,1.89,16,16,0,0,0-4,2.76V31.26H345.57v65h11.68v-4a16,16,0,0,0,3.95,2.87,17.92,17.92,0,0,0,8.44,2,20,20,0,0,0,10.78-3,21,21,0,0,0,7.49-8.09,25.67,25.67,0,0,0,0-23.07ZM377.23,80.61a10.23,10.23,0,0,1-3.86,4.13,10.87,10.87,0,0,1-5.7,1.48,11,11,0,0,1-5.75-1.48A10.23,10.23,0,0,1,358,80.61a13.26,13.26,0,0,1-1.39-6.15A13,13,0,0,1,358,68.39a10.33,10.33,0,0,1,3.87-4.13,11,11,0,0,1,5.7-1.48,11.24,11.24,0,0,1,5.75,1.48,10.27,10.27,0,0,1,3.9,4.13,12.8,12.8,0,0,1,1.4,6.07,13.14,13.14,0,0,1-1.4,6.15Z" fill="#057130"/><path d="M429.09,52.81V57a15.28,15.28,0,0,0-4.22-3.14,18.07,18.07,0,0,0-8.35-1.88,19.81,19.81,0,0,0-10.68,3A20.67,20.67,0,0,0,398.38,63a26.05,26.05,0,0,0,0,23.07,20.74,20.74,0,0,0,7.46,8.09,19.81,19.81,0,0,0,10.68,3,17.86,17.86,0,0,0,8.33-1.94A16,16,0,0,0,429.07,92v4.24h11.67V52.87ZM426.66,83a10.42,10.42,0,0,1-8,3.28,11,11,0,0,1-5.7-1.48,10.42,10.42,0,0,1-3.87-4.14,13.26,13.26,0,0,1-1.39-6.15,13,13,0,0,1,1.39-6.06A10.33,10.33,0,0,1,413,64.29a11.89,11.89,0,0,1,11.49,0,10.23,10.23,0,0,1,3.86,4.13,12.76,12.76,0,0,1,1.4,6.06,11.88,11.88,0,0,1-3.06,8.46Z" fill="#057130"/><path d="M507.35,52a30.28,30.28,0,0,0-6.91-10A31.29,31.29,0,0,0,490,35.39a35.48,35.48,0,0,0-13-2.33H452.43V96.22h24.79a35.1,35.1,0,0,0,12.89-2.33,31,31,0,0,0,10.37-6.61,30.44,30.44,0,0,0,6.87-10,31.89,31.89,0,0,0,2.47-12.61A31.55,31.55,0,0,0,507.35,52ZM494.69,75.54a18,18,0,0,1-7.14,7.22,21.5,21.5,0,0,1-10.68,2.56H464.65V43.92h12.21a21.29,21.29,0,0,1,10.6,2.57,18.29,18.29,0,0,1,7.18,7.18,21.62,21.62,0,0,1,2.61,10.82,22.71,22.71,0,0,1-2.56,11.05Z" fill="#005730"/><path d="M536.76,97.09a21,21,0,0,1-10.19-2.43,17.73,17.73,0,0,1-7-6.73,19.37,19.37,0,0,1-2.51-10V52.82h11.84V77.68a11,11,0,0,0,.9,4.63,6.32,6.32,0,0,0,2.7,2.92,8.72,8.72,0,0,0,4.22,1A7.41,7.41,0,0,0,542.51,84a9,9,0,0,0,2.07-6.28V52.81h11.76V77.94a19.92,19.92,0,0,1-2.47,10,17.2,17.2,0,0,1-6.91,6.7A21.4,21.4,0,0,1,536.76,97.09Z" fill="#005730"/><path d="M608,63a21,21,0,0,0-7.5-8.08,20.1,20.1,0,0,0-10.78-3,18.46,18.46,0,0,0-8.35,1.89,15.94,15.94,0,0,0-3.95,2.76V31.26H565.68v65h11.67v-4a16.37,16.37,0,0,0,3.95,2.87,18,18,0,0,0,8.44,2,20.09,20.09,0,0,0,10.78-3,21,21,0,0,0,7.5-8.09A25.67,25.67,0,0,0,608,63ZM597.34,80.61a10.3,10.3,0,0,1-3.86,4.13,10.87,10.87,0,0,1-5.7,1.48A11,11,0,0,1,582,84.74a10.16,10.16,0,0,1-3.91-4.13,14.12,14.12,0,0,1,0-12.22A10.3,10.3,0,0,1,582,64.26a11,11,0,0,1,5.71-1.48,11.2,11.2,0,0,1,5.74,1.48,10.23,10.23,0,0,1,3.91,4.13,14.08,14.08,0,0,1,0,12.22Z" fill="#005730"/></g></g></svg>