<svg xmlns="http://www.w3.org/2000/svg" viewBox="0 0 610.91 399.38"><g id="Capa_2" data-name="Capa 2"><g id="Capa_1-2" data-name="Capa 1"><g id="Capa_1-2-2" data-name="Capa 1-2"><path d="M420.73,89.78a41.35,41.35,0,0,0,7.46-10.36,49.13,49.13,0,0,0,5.08-22.6,53.56,53.56,0,0,0-8-29.17A56.86,56.86,0,0,0,403.52,7.58a69.35,69.35,0,0,0-62.2,0,56.3,56.3,0,0,0-21.74,20,53.84,53.84,0,0,0-8,29,49,49,0,0,0,5.32,22.81,43.16,43.16,0,0,0,7.5,10.36l.24.25H314.05v61.26a94.48,94.48,0,0,0,6.29,34.56,83.84,83.84,0,0,0,17.9,28.09,82.54,82.54,0,0,0,27.09,18.49,86.32,86.32,0,0,0,34,6.67A85.13,85.13,0,0,0,433,232.43a81.37,81.37,0,0,0,27-18.63,84.74,84.74,0,0,0,17.76-28.06,94.52,94.52,0,0,0,6.29-34.93v-61Zm-75.85-43A27,27,0,0,1,356,36.4a34.73,34.73,0,0,1,16.56-3.74,33.78,33.78,0,0,1,16.2,3.74A27.84,27.84,0,0,1,403.9,62.14a29.19,29.19,0,0,1-4,15.34,28.74,28.74,0,0,1-15.34,12.3,36.47,36.47,0,0,1-12,1.94,37.73,37.73,0,0,1-12.24-1.94,28.74,28.74,0,0,1-15.44-12.19,29.75,29.75,0,0,1-4-15.59A29.43,29.43,0,0,1,344.88,46.76ZM454.8,150.32a57.58,57.58,0,0,1-6.91,28.55,50.12,50.12,0,0,1-19.35,19.35,58.76,58.76,0,0,1-29.17,6.91,61.07,61.07,0,0,1-29.75-6.91A48.87,48.87,0,0,1,350.16,179a58.51,58.51,0,0,1-6.91-28.79V122.68H454.8Z" fill="#005730"/><path d="M280.19,89.78a43.43,43.43,0,0,0,7.5-10.36A48.69,48.69,0,0,0,293,56.68a53.76,53.76,0,0,0-8-29.1A56.2,56.2,0,0,0,263.26,7.37a69.39,69.39,0,0,0-62.2,0,56.85,56.85,0,0,0-21.77,20,53.59,53.59,0,0,0-8,29.16,49.33,49.33,0,0,0,5.08,22.6,41,41,0,0,0,7.47,10.37H120.54v61.3a94.32,94.32,0,0,0,6.29,34.93,84.49,84.49,0,0,0,17.9,28.06,81.37,81.37,0,0,0,27,18.63,85.11,85.11,0,0,0,33.72,6.67,86.25,86.25,0,0,0,34-6.67,82.33,82.33,0,0,0,27.09-18.49A83.85,83.85,0,0,0,284.3,186a94.48,94.48,0,0,0,6.29-34.56V89.78ZM204.72,46.52a28.62,28.62,0,0,1,11.13-10.37,33.89,33.89,0,0,1,16.2-3.73,34.77,34.77,0,0,1,16.55,3.73,27,27,0,0,1,11.13,10.37,29.43,29.43,0,0,1,4,15.24,29.69,29.69,0,0,1-4,15.58A27.65,27.65,0,0,1,248.6,87.71a27.2,27.2,0,0,1-4.31,1.83,38.54,38.54,0,0,1-24.26.24,27.94,27.94,0,0,1-19.42-27.64A28.85,28.85,0,0,1,204.72,46.52Zm56.6,103.8a58.48,58.48,0,0,1-6.91,28.79A48.9,48.9,0,0,1,235,198.32a60.88,60.88,0,0,1-29.76,6.91A58.51,58.51,0,0,1,176,198.32,50,50,0,0,1,156.69,179a57.36,57.36,0,0,1-6.91-28.54V122.78H261.32Z" fill="#005730"/></g><path d="M87.4,327.63a48.36,48.36,0,0,0-11-15.94,50,50,0,0,0-16.58-10.51,56.4,56.4,0,0,0-20.66-3.71H0V398H39.45A55.81,55.81,0,0,0,60,394.24a49.1,49.1,0,0,0,16.51-10.51,48.44,48.44,0,0,0,10.93-16,50.69,50.69,0,0,0,3.93-20.08A50.17,50.17,0,0,0,87.4,327.63ZM67.25,365.08a28.71,28.71,0,0,1-11.36,11.5,34.26,34.26,0,0,1-17,4.08H19.44v-65.9H38.88a33.94,33.94,0,0,1,16.86,4.08,29.3,29.3,0,0,1,11.44,11.43,34.57,34.57,0,0,1,4.14,17.23A36,36,0,0,1,67.25,365.08Z" fill="#005730"/><path d="M153.65,328.91v6.59a24.23,24.23,0,0,0-6.71-5,28.78,28.78,0,0,0-13.3-3,31.56,31.56,0,0,0-17,4.72,32.88,32.88,0,0,0-11.86,12.87,41.45,41.45,0,0,0,0,36.73,32.94,32.94,0,0,0,11.86,12.87,31.56,31.56,0,0,0,17,4.71,28.2,28.2,0,0,0,13.3-3.07,25,25,0,0,0,6.71-5.05V398h18.59v-69Zm-3.85,48a16.61,16.61,0,0,1-12.73,5.22,17.3,17.3,0,0,1-9.07-2.36,16.41,16.41,0,0,1-6.15-6.58,20.7,20.7,0,0,1-2.21-9.79,20.43,20.43,0,0,1,2.21-9.65,16.39,16.39,0,0,1,6.15-6.57,17.3,17.3,0,0,1,9.07-2.36,17.59,17.59,0,0,1,9.22,2.36,16.39,16.39,0,0,1,6.15,6.57,20.44,20.44,0,0,1,2.22,9.65Q154.66,371.66,149.8,376.87Z" fill="#005730"/><path d="M256.21,345.07a33.42,33.42,0,0,0-11.93-12.87,31.83,31.83,0,0,0-17.16-4.72,29.3,29.3,0,0,0-13.29,3,25.51,25.51,0,0,0-6.29,4.4V294.61H188.82V398H207.4v-6.28a26,26,0,0,0,6.29,4.57,28.57,28.57,0,0,0,13.43,3.14,31.83,31.83,0,0,0,17.16-4.71,33.49,33.49,0,0,0,11.93-12.87,40.86,40.86,0,0,0,0-36.73Zm-17,28.08a16.39,16.39,0,0,1-6.14,6.58,17.36,17.36,0,0,1-9.08,2.36,17.71,17.71,0,0,1-9.15-2.36,16.24,16.24,0,0,1-6.22-6.58,20.82,20.82,0,0,1-2.21-9.79,20.55,20.55,0,0,1,2.21-9.65,16.39,16.39,0,0,1,6.15-6.57,17.33,17.33,0,0,1,9.08-2.36,17.71,17.71,0,0,1,9.15,2.36,16.26,16.26,0,0,1,6.21,6.57,20.44,20.44,0,0,1,2.22,9.65A20.7,20.7,0,0,1,239.2,373.15Z" fill="#005730"/><path d="M321.75,328.91v6.59a24.14,24.14,0,0,0-6.72-5,28.77,28.77,0,0,0-13.29-3,31.56,31.56,0,0,0-17,4.72,32.9,32.9,0,0,0-11.87,12.87,41.54,41.54,0,0,0,0,36.73,33,33,0,0,0,11.87,12.87,31.56,31.56,0,0,0,17,4.71A28.19,28.19,0,0,0,315,396.31a25.06,25.06,0,0,0,6.72-5.05V398h18.58v-69Zm-3.86,48a16.57,16.57,0,0,1-12.72,5.22,17.33,17.33,0,0,1-9.08-2.36,16.41,16.41,0,0,1-6.15-6.58,20.82,20.82,0,0,1-2.21-9.79,20.55,20.55,0,0,1,2.21-9.65,16.39,16.39,0,0,1,6.15-6.57,17.33,17.33,0,0,1,9.08-2.36,17.61,17.61,0,0,1,9.22,2.36,16.29,16.29,0,0,1,6.14,6.57,20.44,20.44,0,0,1,2.22,9.65Q322.75,371.66,317.89,376.87Z" fill="#005730"/><path d="M446.32,327.63a48.24,48.24,0,0,0-11-15.94,49.81,49.81,0,0,0-16.58-10.51,56.39,56.39,0,0,0-20.65-3.71H358.91V398h39.45a55.74,55.74,0,0,0,20.51-3.71,49.1,49.1,0,0,0,16.51-10.51,48.47,48.47,0,0,0,10.94-16,50.69,50.69,0,0,0,3.93-20.08A50.17,50.17,0,0,0,446.32,327.63Zm-20.16,37.45a28.64,28.64,0,0,1-11.36,11.5,34.26,34.26,0,0,1-17,4.08H378.35v-65.9h19.44a34,34,0,0,1,16.87,4.08,29.21,29.21,0,0,1,11.43,11.43,34.47,34.47,0,0,1,4.15,17.23A36,36,0,0,1,426.16,365.08Z" fill="#005730"/><path d="M493.13,399.38a33.33,33.33,0,0,1-16.22-3.86,28.21,28.21,0,0,1-11.08-10.72,30.9,30.9,0,0,1-4-15.87v-40h18.86V368.5a17.35,17.35,0,0,0,1.43,7.36,10,10,0,0,0,4.29,4.65,13.73,13.73,0,0,0,6.72,1.57q5.87,0,9.15-3.57t3.29-10V328.91h18.72v40a31.64,31.64,0,0,1-3.93,16,27.21,27.21,0,0,1-11,10.65A33.87,33.87,0,0,1,493.13,399.38Z" fill="#005730"/><path d="M606.55,345.07a33.42,33.42,0,0,0-11.93-12.87,31.86,31.86,0,0,0-17.16-4.72,29.3,29.3,0,0,0-13.29,3,25.51,25.51,0,0,0-6.29,4.4V294.61H539.16V398h18.58v-6.28a26,26,0,0,0,6.29,4.57,28.57,28.57,0,0,0,13.43,3.14,31.85,31.85,0,0,0,17.16-4.71,33.49,33.49,0,0,0,11.93-12.87,40.86,40.86,0,0,0,0-36.73Zm-17,28.08a16.39,16.39,0,0,1-6.14,6.58,17.36,17.36,0,0,1-9.08,2.36,17.71,17.71,0,0,1-9.15-2.36,16.24,16.24,0,0,1-6.22-6.58,20.82,20.82,0,0,1-2.21-9.79,20.55,20.55,0,0,1,2.21-9.65,16.39,16.39,0,0,1,6.15-6.57,17.33,17.33,0,0,1,9.08-2.36,17.65,17.65,0,0,1,9.14,2.36,16.22,16.22,0,0,1,6.22,6.57,20.44,20.44,0,0,1,2.22,9.65A20.7,20.7,0,0,1,589.54,373.15Z" fill="#005730"/></g></g></svg>