<svg xmlns="http://www.w3.org/2000/svg" viewBox="0 0 363.54 239.1"><g id="Capa_2" data-name="Capa 2"><g id="Capa_1-2" data-name="Capa 1"><g id="Capa_1-2-2" data-name="Capa 1-2"><path d="M300.19,89.78a40.85,40.85,0,0,0,7.46-10.36,49.13,49.13,0,0,0,5.08-22.6,53.56,53.56,0,0,0-8-29.17A56.72,56.72,0,0,0,283,7.58a69.35,69.35,0,0,0-62.2,0,56.28,56.28,0,0,0-21.73,20,53.77,53.77,0,0,0-8,29,48.86,48.86,0,0,0,5.33,22.81,43.39,43.39,0,0,0,7.49,10.36l.25.25H193.52v61.26a94.48,94.48,0,0,0,6.29,34.56,83.53,83.53,0,0,0,17.9,28.09,82.33,82.33,0,0,0,27.09,18.49,86.25,86.25,0,0,0,34,6.67,85.11,85.11,0,0,0,33.72-6.67,81.37,81.37,0,0,0,27-18.63,84.58,84.58,0,0,0,17.76-28.06,94.12,94.12,0,0,0,6.29-34.93v-61Zm-75.85-43A27,27,0,0,1,235.47,36.4,34.66,34.66,0,0,1,252,32.66a33.82,33.82,0,0,1,16.21,3.74,27.85,27.85,0,0,1,15.13,25.74,29.09,29.09,0,0,1-4,15.34A28.73,28.73,0,0,1,264,89.78a36.43,36.43,0,0,1-12,1.94,37.67,37.67,0,0,1-12.23-1.94A26.92,26.92,0,0,1,235.47,88a27.7,27.7,0,0,1-11.13-10.36,29.75,29.75,0,0,1-4-15.59A29.53,29.53,0,0,1,224.34,46.76ZM334.26,150.32a57.48,57.48,0,0,1-6.91,28.55A50.12,50.12,0,0,1,308,198.22a58.76,58.76,0,0,1-29.17,6.91,61.07,61.07,0,0,1-29.75-6.91A48.78,48.78,0,0,1,229.63,179a58.4,58.4,0,0,1-6.91-28.79V122.68H334.26Z" fill="#005730"/><path d="M159.65,89.78a43.16,43.16,0,0,0,7.5-10.36,48.45,48.45,0,0,0,5.32-22.74,53.67,53.67,0,0,0-8-29.1A56.13,56.13,0,0,0,142.72,7.37,64.89,64.89,0,0,0,111.62,0a65,65,0,0,0-31.1,7.36,56.92,56.92,0,0,0-21.77,20,53.5,53.5,0,0,0-8,29.16,49.08,49.08,0,0,0,5.08,22.6,41,41,0,0,0,7.46,10.37H0v61.3A94.12,94.12,0,0,0,6.3,185.74,84.33,84.33,0,0,0,24.2,213.8a81.22,81.22,0,0,0,27,18.63,85.13,85.13,0,0,0,33.73,6.67,86.32,86.32,0,0,0,34-6.67A82.54,82.54,0,0,0,146,213.94,83.67,83.67,0,0,0,163.76,186a94.28,94.28,0,0,0,6.29-34.56V89.78ZM84.18,46.52A28.76,28.76,0,0,1,95.31,36.15a33.9,33.9,0,0,1,16.21-3.73,34.82,34.82,0,0,1,16.55,3.73A27.07,27.07,0,0,1,139.2,46.52a29.52,29.52,0,0,1,4,15.24,29.68,29.68,0,0,1-4,15.58,27.72,27.72,0,0,1-11.13,10.37,26.92,26.92,0,0,1-4.32,1.83,38.54,38.54,0,0,1-24.26.24A28.78,28.78,0,0,1,84.05,77.55a29.07,29.07,0,0,1-4-15.41A28.85,28.85,0,0,1,84.18,46.52Zm56.61,103.8a58.49,58.49,0,0,1-6.92,28.79,48.78,48.78,0,0,1-19.45,19.21,60.84,60.84,0,0,1-29.75,6.91,58.55,58.55,0,0,1-29.17-6.91A50.05,50.05,0,0,1,36.15,179a57.47,57.47,0,0,1-6.91-28.54V122.78H140.79Z" fill="#005730"/></g></g></g></svg>